<?xml version="1.0" standalone="no"?>
<!DOCTYPE svg PUBLIC "-//W3C//DTD SVG 20010904//EN"
 "http://www.w3.org/TR/2001/REC-SVG-20010904/DTD/svg10.dtd">
<svg version="1.0" xmlns="http://www.w3.org/2000/svg"
 width="296.000000pt" height="171.000000pt" viewBox="0 0 296.000000 171.000000"
 preserveAspectRatio="xMidYMid meet">

<g transform="translate(0.000000,171.000000) scale(0.100000,-0.100000)"
fill="#000000" stroke="none">
<path d="M1326 1694 c-394 -71 -687 -425 -686 -828 1 -461 378 -836 840 -836
462 0 839 375 840 836 1 525 -475 922 -994 828z m563 -405 c101 -21 158 -89
168 -200 l6 -60 -79 3 -78 3 -9 41 c-11 58 -46 94 -92 94 -80 0 -108 -79 -107
-303 1 -210 24 -287 92 -302 38 -8 85 19 105 61 8 18 15 59 15 93 l0 61 -55 0
-55 0 0 60 0 60 135 0 135 0 0 -225 0 -225 -60 0 -60 0 0 41 0 42 -22 -28
c-49 -62 -178 -85 -265 -46 -98 45 -133 151 -134 399 0 214 25 316 95 381 55
51 164 72 265 50z m-584 -28 c99 -44 137 -153 100 -278 -16 -52 -53 -95 -96
-108 -19 -6 -17 -9 19 -25 60 -27 73 -61 84 -215 6 -81 15 -138 24 -152 8 -12
14 -25 14 -28 0 -3 -40 -5 -90 -5 -110 0 -110 1 -117 144 -8 192 -16 206 -118
206 l-65 0 -2 -172 -3 -173 -82 -3 -83 -3 0 416 0 415 188 0 c160 0 193 -3
227 -19z"/>
<path d="M1060 1040 l0 -123 66 6 c54 4 71 10 93 31 22 23 26 35 26 86 0 51
-4 63 -27 87 -23 23 -38 28 -93 31 l-65 4 0 -122z"/>
</g>
</svg>
